PathFileType	4	(X/Y/Z)	s06c0203.trc
DataRate	CameraRate	NumFrames	NumMarkers	Units	OrigDataRate	OrigDataStartFrame	OrigNumFrames
200	200	4	48	mm	200	1750	2000
Frame#	Time	racr			lacr			c7			jug			rlel			rdr			llel			ldr			s2			lic			ric			lasi			rasi			rpsi			lpsi			rgt			lgt			rth1			rth2			rth3			rth4			rlfc			rmfc			rsh1			rsh2			rsh3			rsh4			rlmal			rcal			rtoe			rmt5			lth1			lth2			lth4			lth3			llfc			lmfc			llmal			lcal			lmt5			lsh1			lsh2			lsh3			lsh4			ltoe			SBIKE			LBIKE			RBIKE			
		X1	Y1	Z1	X2	Y2	Z2	X3	Y3	Z3	X4	Y4	Z4	X5	Y5	Z5	X6	Y6	Z6	X7	Y7	Z7	X8	Y8	Z8	X9	Y9	Z9	X10	Y10	Z10	X11	Y11	Z11	X12	Y12	Z12	X13	Y13	Z13	X14	Y14	Z14	X15	Y15	Z15	X16	Y16	Z16	X17	Y17	Z17	X18	Y18	Z18	X19	Y19	Z19	X20	Y20	Z20	X21	Y21	Z21	X22	Y22	Z22	X23	Y23	Z23	X24	Y24	Z24	X25	Y25	Z25	X26	Y26	Z26	X27	Y27	Z27	X28	Y28	Z28	X29	Y29	Z29	X30	Y30	Z30	X31	Y31	Z31	X32	Y32	Z32	X33	Y33	Z33	X34	Y34	Z34	X35	Y35	Z35	X36	Y36	Z36	X37	Y37	Z37	X38	Y38	Z38	X39	Y39	Z39	X40	Y40	Z40	X41	Y41	Z41	X42	Y42	Z42	X43	Y43	Z43	X44	Y44	Z44	X45	Y45	Z45	X46	Y46	Z46	X47	Y47	Z47	X48	Y48	Z48	
1750	8.7500	581.019442	1197.403083	-83.541884	602.177977	1169.953818	-395.922266	606.995750	1275.424340	-237.852571	565.462683	1123.299314	-235.358963	488.010691	991.725947	70.661562	659.755062	917.356135	-56.724125	490.739415	968.060978	-545.478310	656.358870	913.146479	-414.374581	38.657424	1139.222795	-252.247975	195.056424	1083.729665	-406.062697	168.349372	1106.757161	-75.931354	207.202021	1034.726803	-359.412183	200.392831	1070.969757	-104.763992	70.382824	1174.475661	-220.918201	73.349075	1169.550423	-278.795453	131.096043	1027.222225	-42.684045	174.339211	1027.154790	-428.913966	209.915595	907.592512	-21.048959	272.641551	841.399317	-24.130065	292.647216	756.760870	-32.121382	303.850987	860.837047	-37.658264	326.156769	652.576624	-46.615568	319.069997	626.113936	-152.229663	295.210847	531.368109	-20.292687	295.209979	445.804613	-40.806473	255.484370	368.554615	-43.882263	315.750083	445.513327	-75.117006	227.475242	288.558344	-49.488791	164.988652	253.103505	-97.895610	441.342247	251.464183	-96.051305	345.773857	224.521186	-25.887012	232.052130	935.039482	-438.463193	308.861668	894.328864	-431.923214	331.338902	918.671854	-415.079439	357.067139	819.375623	-435.667057	387.755580	713.258729	-408.437414	386.296924	701.382869	-291.354172	60.517882	544.862475	-374.840562	-14.934492	571.977031	-324.732216	105.570974	418.172543	-400.166522	298.379396	649.517111	-421.334761	233.255121	599.576491	-392.742539	146.524356	580.865932	-389.763427	248.101994	583.387061	-360.611699	177.468902	367.268002	-343.123073	-203.882057	864.372827	-212.078831	-50.859518	79.959017	-411.570266	-50.916409	79.875154	-14.664636	
1751	8.7550	582.366573	1198.267018	-85.438126	600.526088	1169.921500	-398.275936	607.434620	1275.559466	-240.235336	564.931958	1123.727715	-236.823026	490.133716	992.939797	70.133899	660.242341	917.119481	-57.632255	489.962757	966.476278	-546.097537	656.073469	913.201517	-414.312865	39.384582	1139.730403	-249.468788	194.261496	1085.071604	-405.160935	170.862929	1106.758296	-74.419702	207.142682	1036.385235	-358.171997	202.210342	1069.935896	-103.780566	71.363430	1174.925974	-218.270347	73.596955	1170.223384	-276.009052	131.931535	1025.410420	-41.686856	174.420103	1031.047709	-427.421384	207.418163	902.694732	-20.625940	268.223959	834.403203	-23.124793	284.689353	749.046299	-32.473279	299.299131	852.660627	-36.799589	315.689663	643.852037	-46.188672	307.412667	617.266774	-151.734882	285.517674	523.326979	-19.651894	286.745944	437.613393	-40.387986	247.962642	359.983331	-43.409780	307.923770	437.677570	-74.680184	220.978831	280.140040	-48.988202	157.712929	245.797719	-96.585675	434.806570	242.438679	-96.188269	339.299862	215.825370	-25.787152	233.402591	940.315232	-437.095363	311.211106	901.212053	-431.364614	333.399103	926.146983	-414.981210	360.898908	827.082678	-435.417470	394.606889	721.674303	-407.722910	390.652898	709.741647	-291.555497	67.177205	553.634963	-374.723760	-8.552659	580.519344	-324.508809	112.218119	427.030313	-400.200124	305.316829	658.179678	-420.634726	239.954791	608.237683	-392.368909	153.170647	589.848231	-389.560792	254.796206	591.856583	-360.208498	184.268873	376.494216	-343.650278	-203.858454	864.375888	-211.894160	-50.853733	79.980436	-411.554035	-50.908956	79.864740	-14.637706	
1752	8.7600	583.751760	1199.007205	-87.343691	598.959719	1169.809400	-400.497549	607.651389	1275.335116	-242.730011	564.568558	1123.706507	-238.099513	491.869705	994.508212	69.854621	660.558743	916.541981	-58.619082	489.201387	964.920162	-546.600531	655.780621	913.331767	-414.135405	40.130059	1140.254884	-246.534806	193.391566	1086.316295	-404.216783	173.681370	1106.692999	-72.847331	207.190003	1038.253827	-357.139199	205.359983	1068.265949	-103.732494	72.318303	1175.215243	-215.499220	73.864887	1170.828747	-273.181712	133.027430	1023.441472	-40.598702	174.307938	1034.899063	-425.871725	204.684799	897.828789	-19.932929	263.188722	827.653872	-22.599160	276.787398	741.932756	-32.753830	294.909046	844.947686	-36.247276	304.948945	635.990877	-45.759420	295.958013	608.833604	-151.462762	276.314675	516.308085	-19.211942	278.233595	430.734212	-39.931824	240.261378	352.638403	-42.926990	299.383878	430.875645	-74.228641	214.255608	272.406565	-48.615984	150.729086	238.492381	-96.078310	427.810058	233.581256	-96.275436	332.301339	207.661417	-25.649153	234.469283	945.490081	-435.804637	313.278349	908.173883	-431.113643	335.125179	933.750250	-415.184355	364.613717	835.210455	-434.641334	401.386172	730.415151	-406.873608	397.707090	718.642553	-290.393256	74.136479	561.858520	-374.351445	-1.820385	588.553027	-324.370285	119.414549	435.479211	-400.185911	312.406477	666.905868	-419.780033	246.978000	616.858496	-391.948186	160.225318	598.263074	-388.972907	261.711370	600.312099	-359.814599	191.340187	384.750659	-343.108150	-203.850135	864.385482	-211.778925	-50.862887	80.000821	-411.523222	-50.891157	79.837079	-14.625464	
1753	8.7650	585.028076	1199.772113	-89.369587	597.404344	1169.641309	-402.740409	607.668905	1275.406042	-245.175345	564.343155	1123.886771	-239.572829	493.541879	996.137359	69.537445	660.843240	916.229886	-59.147316	488.372497	963.369908	-547.059052	655.539131	913.483154	-414.025557	40.774819	1140.404915	-243.226848	192.343219	1087.492107	-403.275855	176.348833	1106.046885	-71.541773	207.081634	1039.986434	-356.334291	208.053089	1065.931379	-104.135473	72.982580	1175.225045	-212.188232	74.147492	1171.318704	-270.296051	134.248489	1021.342058	-39.495044	173.898096	1038.739804	-424.397459	202.013209	893.374004	-18.926806	258.096238	821.590937	-21.915788	268.919888	735.395857	-32.960130	290.488307	837.625992	-36.004199	294.360163	629.015319	-45.395354	283.994025	601.916966	-151.723789	267.114990	510.325532	-18.341728	269.706849	424.664479	-39.640451	232.345034	346.341297	-42.444046	290.824957	425.035602	-73.916704	207.183599	265.585068	-48.349357	143.302320	232.015869	-95.493314	420.415877	224.934249	-96.448526	324.938112	200.044515	-25.564001	235.240899	950.572398	-434.780258	315.006931	915.054737	-430.962054	336.568358	941.298648	-415.558493	367.546480	843.389433	-434.892343	408.275193	739.375706	-406.007276	404.334162	728.026168	-289.784036	81.413333	569.874526	-374.172492	5.344758	596.039648	-324.428600	127.411537	443.643495	-400.511365	319.680140	675.790230	-418.839885	254.270046	625.393789	-391.420776	167.544533	606.560670	-388.708027	269.011272	608.753056	-359.392370	199.868890	393.724902	-343.171501	-203.861111	864.341997	-211.553691	-50.874743	80.021191	-411.512286	-50.960718	79.725167	-14.607662	
